# xmcd CD database file
#
# Track frame offsets:
#	182
#	14960
#	31930
#	46690
#	65930
#	80877
#	98915
#	121460
#	144030
#
# Disc length: 2158 seconds
#
# Revision: 0
# Processed by: cddbd v1.4PL0 Copyright (c) Steve Scherf et al.
# Submitted via: CDex 1.50Beta7
#
DISCID=7c086c09
DTITLE=ray barreto - el ray criollo
DYEAR=1900
DGENRE=Salsa
TTITLE0=margie
TTITLE1=salasa y dulzura
TTITLE2=rareza en guajira
TTITLE3=descarga criolla
TTITLE4=despojate
TTITLE5=yo soy la candela
TTITLE6=don lengua
TTITLE7=the shadow of your smile
TTITLE8=a maracaibo
EXTD=
EXTT0=
EXTT1=
EXTT2=
EXTT3=
EXTT4=
EXTT5=
EXTT6=
EXTT7=
EXTT8=
PLAYORDER=
